<?xml version="1.0" encoding="UTF-8"?>
<svg xmlns="http://www.w3.org/2000/svg" width="104.22" height="34.28" viewBox="0 0 104.22 34.28">
  <g isolation="isolate">
    <g id="Layer_2" data-name="Layer 2">
      <g id="Layer_1-2" data-name="Layer 1">
        <g>
          <text transform="translate(41.48 27.37)" fill="#fff" font-family="Graphie-LightItalic, Graphie"
            font-size="32.9" font-style="italic" font-weight="300">
            <tspan x="0" y="0">Gi</tspan>
            <tspan x="29.57" y="0" letter-spacing="-.06em">f</tspan>
            <tspan x="38.29" y="0">tr</tspan>
          </text>
          <path
            d="m24.15,29.53c6.29-1.76,10.95-7.96,10.39-14.82-.55-6.86-8.79-9.23-14.24-7.56-4.91,1.86-8.99,6.45-8.59,12.05.45,3.8,2.7,7.64,6.46,9.59,1.98.87,4.04,1.09,5.97.74Z"
            fill="#ee2a7b" mix-blend-mode="multiply" opacity=".71" />
          <path
            d="m7.57,5.03C3.02,5.56-1.98,11.03.8,15.06c3.66,4.96,8.29,7.23,11.04,13.07,2.06,4.38,6.71-1.82,8.41-4.84,2.86-6.24.16-13.88-5.81-17.09-2.07-1.1-4.46-1.55-6.87-1.17Z"
            fill="#00a79d" mix-blend-mode="multiply" opacity=".71" />
        </g>
      </g>
    </g>
  </g>
</svg>