<?xml version="1.0" encoding="UTF-8"?>
<svg id="Layer_2" data-name="Layer 2" xmlns="http://www.w3.org/2000/svg" width="194.97" height="70.45" viewBox="0 0 194.97 70.45">
  <g id="Isolation_Mode" data-name="Isolation Mode">
    <g>
      <text transform="translate(81.82 49.02)" fill="#f1f1f1" font-family="Graphie-LightItalic, Graphie" font-size="57.56" font-style="italic" font-weight="300"><tspan x="0" y="0" letter-spacing=".04em">gi</tspan><tspan x="50.07" y="0" letter-spacing="-.02em">f</tspan><tspan x="67.63" y="0" letter-spacing=".04em">tr</tspan></text>
      <g>
        <path d="m4.57,10.91l-.68-1.72c-.16-.41-.48-.74-.88-.91l-1.7-.74c-.26-.11-.25-.48.01-.58l1.72-.68c.41-.16.74-.48.91-.88l.74-1.7c.11-.26.48-.25.58.01l.68,1.72c.16.41.48.74.88.91l1.7.74c.26.11.25.48-.01.58l-1.72.68c-.41.16-.74.48-.91.88l-.74,1.7c-.11.26-.48.25-.58-.01Z" fill="#f1f1f1"/>
        <path d="m71.9,34.03c-.81-.85-1.94-1.33-3.11-1.33h-18.85c-.34,0-.63-.23-.72-.56-1.44-5.26-6.45-9.07-12.26-8.61-5.76.45-10.39,5.15-10.77,10.91-.45,6.83,4.98,12.53,11.71,12.53,5.4,0,9.97-3.67,11.32-8.65.09-.33.37-.56.71-.56h17.21c.44,0,.79.38.74.81-1.73,15.75-15.52,27.72-31.75,26.79-7.04-.4-13.77-3.29-18.9-8.13-6.32-5.96-9.71-14.09-9.51-22.72,0-.42.03-.84.06-1.26.02-.31.23-.57.53-.65,2.71-.79,4.7-3.29,4.7-6.25,0-1.86-.79-3.54-2.05-4.73-1.17-1.1-2.74-1.78-4.46-1.78-.09,0-.18,0-.27.01-3.47.14-6.24,3-6.24,6.5,0,2.1,1,3.97,2.55,5.16.2.15.3.41.28.66-.07.74-.11,1.48-.13,2.22-.23,9.57,3.33,18.62,10.01,25.46,6.68,6.84,15.63,10.61,25.2,10.61,18.68,0,34.12-14.6,35.16-33.24,0-.01,0-.03,0-.04.05-1.15-.37-2.29-1.17-3.13Zm-33.99,7.88c-3.69,0-6.69-3-6.69-6.69s3-6.69,6.69-6.69,6.69,3,6.69,6.69-3,6.69-6.69,6.69ZM6.51,24.86c.81,0,1.47.66,1.47,1.47s-.66,1.47-1.47,1.47-1.47-.66-1.47-1.47.66-1.47,1.47-1.47ZM36.92,5.06c8.13-.26,15.84,2.67,21.73,8.26.6.57.91,1.34.87,2.17-.04.83-.44,1.61-1.1,2.12-1.1.85-2.66.8-3.64-.13-1.29-1.23-2.7-2.3-4.19-3.2-.21-.13-.34-.35-.36-.6-.22-3.39-3.05-6.09-6.5-6.09-2.36,0-4.43,1.27-5.57,3.15-.59.98-.94,2.13-.94,3.36,0,.59.08,1.15.23,1.69.75,2.77,3.28,4.82,6.28,4.82,1.57,0,3-.56,4.13-1.49.25-.2.6-.23.87-.05.9.61,1.76,1.29,2.56,2.06,2.77,2.63,7.16,2.83,10.21.46,1.82-1.41,2.93-3.55,3.05-5.85.11-2.29-.77-4.51-2.43-6.08C55.25,3.14,46.24-.28,36.76.02c-8.98.29-17.45,3.99-23.83,10.43-1.93,1.94-3.6,4.08-5,6.35-.27.43-.05,1.01.44,1.12,1.08.24,2.1.69,3.02,1.33.35.24.82.14,1.05-.21,5.19-8.15,14.17-13.64,24.48-13.97Zm6.82,10.5c-.81,0-1.47-.66-1.47-1.47s.66-1.47,1.47-1.47,1.47.66,1.47,1.47-.66,1.47-1.47,1.47Zm-23.48,2.68c-4.66,4.84-7.08,11.22-6.82,17.95.49,12.62,10.76,22.94,23.38,23.49,6.12.27,11.9-1.68,16.46-5.38.16-.13.37-.19.58-.16.29.04.58.06.88.06,3.69,0,6.68-3.09,6.5-6.82-.15-3.31-2.88-6.04-6.19-6.19-3.73-.17-6.82,2.81-6.82,6.5,0,1,.23,1.95.64,2.8,0,0,0,0,0,0,.16.34.07.74-.24.95-3.36,2.23-7.38,3.37-11.59,3.19-10.02-.44-18.17-8.63-18.56-18.65-.21-5.35,1.72-10.41,5.41-14.26,2.93-3.04,6.65-5,10.72-5.68.39-.07.65-.44.59-.83s-.08-.76-.08-1.13c0-.75.1-1.5.3-2.22.14-.51-.29-.99-.82-.92-5.45.73-10.46,3.25-14.35,7.29Zm34.48,28c.81,0,1.47.66,1.47,1.47s-.66,1.47-1.47,1.47-1.47-.66-1.47-1.47.66-1.47,1.47-1.47Z" fill="#f1f1f1"/>
      </g>
    </g>
  </g>
</svg>