<?xml version="1.0" standalone="no"?>
<!DOCTYPE svg PUBLIC "-//W3C//DTD SVG 20010904//EN"
 "http://www.w3.org/TR/2001/REC-SVG-20010904/DTD/svg10.dtd">
<svg version="1.0" xmlns="http://www.w3.org/2000/svg"
 width="584.000000pt" height="584.000000pt" viewBox="0 0 584.000000 584.000000"
 preserveAspectRatio="xMidYMid meet">
<metadata>
Created by potrace 1.14, written by Peter Selinger 2001-2017
</metadata>
<g transform="translate(0.000000,584.000000) scale(0.100000,-0.100000)"
fill="#000000" stroke="none">
<path d="M2735 5714 c-770 -84 -1465 -476 -1939 -1094 -149 -194 -191 -278
-153 -308 6 -5 39 -17 72 -27 33 -9 97 -37 143 -61 53 -29 89 -43 101 -39 11
3 50 48 86 100 349 491 830 825 1400 970 252 63 622 88 870 56 480 -61 912
-250 1277 -561 148 -125 184 -193 158 -299 -14 -58 -66 -123 -119 -150 -91
-46 -170 -34 -257 39 -122 103 -238 191 -290 222 -61 37 -62 38 -79 135 -53
291 -352 483 -640 408 -176 -46 -324 -193 -371 -369 -16 -60 -18 -192 -3 -256
27 -118 116 -243 223 -312 173 -112 391 -109 573 7 72 46 72 46 105 31 18 -9
80 -56 138 -105 145 -124 201 -160 300 -194 71 -25 102 -30 185 -31 120 -1
183 13 295 66 220 105 362 351 347 598 -14 220 -102 356 -367 569 -575 463
-1326 684 -2055 605z m847 -1033 c22 -25 28 -41 28 -77 0 -39 -5 -51 -34 -80
-29 -29 -41 -34 -81 -34 -40 0 -52 5 -81 34 -39 39 -45 86 -19 136 35 68 135
79 187 21z"/>
<path d="M383 5438 c-6 -7 -28 -52 -50 -99 -39 -83 -43 -87 -94 -111 -30 -14
-71 -31 -91 -37 -20 -7 -42 -19 -49 -27 -17 -21 0 -36 81 -69 100 -42 114 -55
150 -147 35 -88 47 -108 62 -108 5 0 29 42 53 94 25 53 54 101 67 110 13 8 57
29 98 46 41 17 79 35 84 40 16 16 -10 35 -93 69 -44 18 -87 41 -95 50 -9 10
-33 58 -54 106 -38 90 -51 106 -69 83z"/>
<path d="M2745 4853 c-11 -2 -66 -13 -123 -24 -408 -80 -809 -320 -1083 -648
-399 -476 -554 -1103 -418 -1691 134 -580 525 -1074 1054 -1330 547 -266 1167
-267 1711 -5 106 51 336 196 363 229 10 12 33 16 97 16 107 0 172 14 259 55
125 59 228 183 269 324 23 78 21 213 -4 293 -53 171 -204 311 -382 353 -262
62 -534 -100 -612 -364 -25 -85 -21 -217 9 -307 14 -41 25 -83 25 -93 0 -28
-46 -62 -169 -125 -402 -206 -856 -229 -1276 -65 -413 161 -755 516 -903 940
-63 179 -77 272 -77 509 0 189 3 228 23 319 104 464 400 850 813 1060 115 59
289 120 401 141 83 16 88 24 88 141 0 54 5 130 12 169 10 59 10 72 -2 84 -18
17 -48 25 -75 19z m1718 -2863 c63 -70 8 -190 -88 -190 -95 0 -150 117 -89
189 48 57 125 58 177 1z"/>
<path d="M369 4121 c-90 -29 -156 -71 -223 -142 -199 -211 -194 -518 12 -724
l65 -66 -2 -111 c-1 -62 -4 -115 -7 -119 -8 -13 15 -352 31 -458 48 -321 133
-583 284 -876 143 -279 288 -475 525 -710 226 -225 432 -374 710 -515 262
-133 550 -224 857 -271 193 -30 588 -33 778 -6 510 72 1003 285 1401 603 116
93 328 307 426 430 328 410 526 882 595 1416 26 201 22 267 -20 352 -37 75
-92 128 -170 165 l-56 26 -810 5 -809 5 -13 25 c-7 14 -27 62 -44 107 -76 204
-250 393 -456 497 -119 59 -230 87 -373 93 -265 12 -492 -73 -684 -257 -137
-131 -224 -279 -268 -456 -31 -125 -31 -313 0 -438 88 -354 368 -625 722 -698
77 -16 120 -19 225 -15 260 10 460 100 642 290 92 96 159 202 203 326 17 47
36 91 42 98 8 10 158 13 728 13 647 0 719 -2 731 -16 18 -22 14 -93 -16 -243
-149 -747 -626 -1366 -1310 -1702 -244 -119 -487 -192 -765 -230 -134 -18
-477 -16 -613 5 -425 63 -793 214 -1127 462 -115 85 -355 318 -442 429 -256
327 -415 685 -489 1100 -25 143 -39 547 -20 583 6 11 28 26 48 33 109 35 220
121 283 219 179 279 33 671 -288 770 -83 26 -224 26 -303 1z m212 -397 c29
-15 59 -65 59 -100 0 -30 -30 -80 -59 -97 -59 -35 -137 -12 -166 49 -19 41
-19 58 1 100 29 60 102 81 165 48z m2630 -306 c160 -59 284 -191 333 -357 21
-71 21 -220 0 -292 -70 -237 -302 -402 -544 -386 -229 15 -420 168 -484 386
-21 72 -21 221 0 292 56 187 192 319 387 374 77 22 224 14 308 -17z"/>
</g>
</svg>
